HIERARCHY
ROOT Hips
{
	OFFSET 0.000000 103.266502 0.000000
	CHANNELS 6 Xposition Yposition Zposition Xrotation Yrotation Zrotation 
	JOINT Spine
	{
		OFFSET -0.002400 12.777504 0.315300
		CHANNELS 3 Xrotation Yrotation Zrotation
		JOINT Spine1
		{
			OFFSET -0.002067 5.816869 0.032633
			CHANNELS 3 Xrotation Yrotation Zrotation
			JOINT Spine1_split
			{
				OFFSET -0.002067 5.816869 0.032633
				CHANNELS 3 Xrotation Yrotation Zrotation
				JOINT Spine2
				{
					OFFSET -0.002067 5.816869 0.032633
					CHANNELS 3 Xrotation Yrotation Zrotation
					JOINT Neck
					{
						OFFSET -0.003700 21.199493 -0.826900
						CHANNELS 3 Xrotation Yrotation Zrotation
						JOINT Head
						{
							OFFSET 0.000000 20.442200 4.834800
							CHANNELS 3 Xrotation Yrotation Zrotation
							JOINT HeadTop_End
							{
								OFFSET 0.000000 34.668396 4.968400
								CHANNELS 3 Xrotation Yrotation Zrotation
								End Site
								{
									OFFSET 0.000000 0.000000 0.000000
								}
							}
						}
					}
					JOINT LeftShoulder
					{
						OFFSET 3.288150 8.794197 -1.372250
						CHANNELS 3 Xrotation Yrotation Zrotation
						JOINT LeftShoulder_split
						{
							OFFSET 3.288150 8.794197 -1.372250
							CHANNELS 3 Xrotation Yrotation Zrotation
							JOINT LeftArm
							{
								OFFSET 11.953299 -2.279007 -0.146200
								CHANNELS 3 Xrotation Yrotation Zrotation
								JOINT LeftForeArm
								{
									OFFSET 18.448900 0.000000 0.000000
									CHANNELS 3 Xrotation Yrotation Zrotation
									JOINT LeftHand
									{
										OFFSET 29.527798 0.000000 0.000000
										CHANNELS 3 Xrotation Yrotation Zrotation
										JOINT LeftHandThumb1
										{
											OFFSET 10.739754 -2.369614 9.225399
											CHANNELS 3 Xrotation Yrotation Zrotation
											JOINT LeftHandThumb2
											{
												OFFSET 4.926170 -2.844131 2.844125
												CHANNELS 3 Xrotation Yrotation Zrotation
												JOINT LeftHandThumb3
												{
													OFFSET 4.614891 -2.664413 2.664409
													CHANNELS 3 Xrotation Yrotation Zrotation
													JOINT LeftHandThumb4
													{
														OFFSET 4.432465 -2.559082 2.559083
														CHANNELS 3 Xrotation Yrotation Zrotation
														End Site
														{
															OFFSET 0.000000 0.000000 0.000000
														}
													}
												}
											}
										}
										JOINT LeftHandIndex1
										{
											OFFSET 26.467674 0.187653 6.405298
											CHANNELS 3 Xrotation Yrotation Zrotation
											JOINT LeftHandIndex2
											{
												OFFSET 8.792900 0.000000 0.000000
												CHANNELS 3 Xrotation Yrotation Zrotation
												JOINT LeftHandIndex3
												{
													OFFSET 10.075203 0.000000 0.000000
													CHANNELS 3 Xrotation Yrotation Zrotation
													End Site
													{
														OFFSET 0.000000 0.000000 0.000000
													}
												}
											}
										}
										JOINT LeftHandMiddle1
										{
											OFFSET 25.764404 0.000000 0.000000
											CHANNELS 3 Xrotation Yrotation Zrotation
											JOINT LeftHandMiddle2
											{
												OFFSET 9.393974 0.000000 0.000000
												CHANNELS 3 Xrotation Yrotation Zrotation
												JOINT LeftHandMiddle3
												{
													OFFSET 10.771950 0.000000 0.000000
													CHANNELS 3 Xrotation Yrotation Zrotation
													End Site
													{
														OFFSET 0.000000 0.000000 0.000000
													}
												}
											}
										}
										JOINT LeftHandRing1
										{
											OFFSET 24.660927 0.144547 -6.225808
											CHANNELS 3 Xrotation Yrotation Zrotation
											JOINT LeftHandRing2
											{
												OFFSET 9.393799 0.000000 0.000000
												CHANNELS 3 Xrotation Yrotation Zrotation
												JOINT LeftHandRing3
												{
													OFFSET 9.928497 0.000000 0.000000
													CHANNELS 3 Xrotation Yrotation Zrotation
													End Site
													{
														OFFSET 0.000000 0.000000 0.000000
													}
												}
											}
										}
										JOINT LeftHandPinky1
										{
											OFFSET 23.655350 0.125290 -12.815412
											CHANNELS 3 Xrotation Yrotation Zrotation
											JOINT LeftHandPinky2
											{
												OFFSET 8.425102 0.000000 0.000000
												CHANNELS 3 Xrotation Yrotation Zrotation
												JOINT LeftHandPinky3
												{
													OFFSET 8.147003 0.000000 0.000000
													CHANNELS 3 Xrotation Yrotation Zrotation
													End Site
													{
														OFFSET 0.000000 0.000000 0.000000
													}
												}
											}
										}
									}
								}
							}
						}
					}
					JOINT RightShoulder
					{
						OFFSET -3.249400 8.794197 -1.372250
						CHANNELS 3 Xrotation Yrotation Zrotation
						JOINT RightShoulder_split
						{
							OFFSET -3.249400 8.794197 -1.372250
							CHANNELS 3 Xrotation Yrotation Zrotation
							JOINT RightArm
							{
								OFFSET -11.953299 -2.279007 -0.146200
								CHANNELS 3 Xrotation Yrotation Zrotation
								JOINT RightForeArm
								{
									OFFSET -18.448900 0.000000 0.000000
									CHANNELS 3 Xrotation Yrotation Zrotation
									JOINT RightHand
									{
										OFFSET -29.527802 0.000000 0.000000
										CHANNELS 3 Xrotation Yrotation Zrotation
										JOINT RightHandThumb1
										{
											OFFSET -10.739754 -2.369614 9.225399
											CHANNELS 3 Xrotation Yrotation Zrotation
											JOINT RightHandThumb2
											{
												OFFSET -4.926170 -2.844131 2.844125
												CHANNELS 3 Xrotation Yrotation Zrotation
												JOINT RightHandThumb3
												{
													OFFSET -4.614891 -2.664413 2.664409
													CHANNELS 3 Xrotation Yrotation Zrotation
													JOINT RightHandThumb4
													{
														OFFSET -4.432465 -2.559082 2.559083
														CHANNELS 3 Xrotation Yrotation Zrotation
														End Site
														{
															OFFSET 0.000000 0.000000 0.000000
														}
													}
												}
											}
										}
										JOINT RightHandIndex1
										{
											OFFSET -26.467674 0.187653 6.405298
											CHANNELS 3 Xrotation Yrotation Zrotation
											JOINT RightHandIndex2
											{
												OFFSET -8.792900 0.000000 0.000000
												CHANNELS 3 Xrotation Yrotation Zrotation
												JOINT RightHandIndex3
												{
													OFFSET -10.075203 0.000000 0.000000
													CHANNELS 3 Xrotation Yrotation Zrotation
													End Site
													{
														OFFSET 0.000000 0.000000 0.000000
													}
												}
											}
										}
										JOINT RightHandMiddle1
										{
											OFFSET -25.764404 0.000000 0.000000
											CHANNELS 3 Xrotation Yrotation Zrotation
											JOINT RightHandMiddle2
											{
												OFFSET -9.393974 0.000000 0.000000
												CHANNELS 3 Xrotation Yrotation Zrotation
												JOINT RightHandMiddle3
												{
													OFFSET -10.771950 0.000000 0.000000
													CHANNELS 3 Xrotation Yrotation Zrotation
													End Site
													{
														OFFSET 0.000000 0.000000 0.000000
													}
												}
											}
										}
										JOINT RightHandRing1
										{
											OFFSET -24.660927 0.144547 -6.225808
											CHANNELS 3 Xrotation Yrotation Zrotation
											JOINT RightHandRing2
											{
												OFFSET -9.393799 0.000000 0.000000
												CHANNELS 3 Xrotation Yrotation Zrotation
												JOINT RightHandRing3
												{
													OFFSET -9.928497 0.000000 0.000000
													CHANNELS 3 Xrotation Yrotation Zrotation
													End Site
													{
														OFFSET 0.000000 0.000000 0.000000
													}
												}
											}
										}
										JOINT RightHandPinky1
										{
											OFFSET -23.655350 0.125290 -12.815412
											CHANNELS 3 Xrotation Yrotation Zrotation
											JOINT RightHandPinky2
											{
												OFFSET -8.425102 0.000000 0.000000
												CHANNELS 3 Xrotation Yrotation Zrotation
												JOINT RightHandPinky3
												{
													OFFSET -8.147003 0.000000 0.000000
													CHANNELS 3 Xrotation Yrotation Zrotation
													End Site
													{
														OFFSET 0.000000 0.000000 0.000000
													}
												}
											}
										}
									}
								}
							}
						}
					}
				}
			}
		}
	}
	JOINT LeftUpLeg
	{
		OFFSET 11.394100 -6.187798 -0.413800
		CHANNELS 3 Xrotation Yrotation Zrotation
		JOINT LeftLeg
		{
			OFFSET 0.430247 -32.302673 3.732800
			CHANNELS 3 Xrotation Yrotation Zrotation
			JOINT LeftFoot
			{
				OFFSET -0.430247 -48.264931 -6.423300
				CHANNELS 3 Xrotation Yrotation Zrotation
				JOINT LeftToeBase
				{
					OFFSET 4.230900 -16.068199 23.438400
					CHANNELS 3 Xrotation Yrotation Zrotation
					JOINT LeftToe_End
					{
						OFFSET 4.510700 0.695400 19.974600
						CHANNELS 3 Xrotation Yrotation Zrotation
						End Site
						{
							OFFSET 0.000000 0.000000 0.000000
						}
					}
				}
			}
		}
	}
	JOINT RightUpLeg
	{
		OFFSET -11.333700 -6.187798 -0.413800
		CHANNELS 3 Xrotation Yrotation Zrotation
		JOINT RightLeg
		{
			OFFSET -0.430392 -32.302628 3.733000
			CHANNELS 3 Xrotation Yrotation Zrotation
			JOINT RightFoot
			{
				OFFSET 0.430392 -48.264973 -6.423500
				CHANNELS 3 Xrotation Yrotation Zrotation
				JOINT RightToeBase
				{
					OFFSET -4.230900 -16.068199 23.438400
					CHANNELS 3 Xrotation Yrotation Zrotation
					JOINT RightToe_End
					{
						OFFSET -4.510700 0.695400 19.974600
						CHANNELS 3 Xrotation Yrotation Zrotation
						End Site
						{
							OFFSET 0.000000 0.000000 0.000000
						}
					}
				}
			}
		}
	}
}
MOTION
Frames: 5
Frame Time: 0.016667
-0.822319 95.243500 44.236320 10.279943 -5.177499 0.104203 5.319937 0.126762 -1.246021 2.188028 -0.566219 -0.158979 0.000000 0.000000 0.000000 0.272737 -0.972617 0.898067 12.585917 -0.308784 2.188554 -30.323021 0.842207 -5.312839 -0.000000 0.000001 -0.000000 5.876924 -7.979694 20.002228 0.000000 0.000000 0.000000 -34.254673 -16.965573 -14.997629 0.000004 -124.447522 0.000002 -1.398398 -13.673596 39.579485 28.620023 -24.676656 7.683738 13.196500 30.099384 -41.312051 -17.405866 27.733894 25.698867 -0.000002 -0.000003 0.000002 3.052572 -0.236013 -15.996346 0.004174 0.221371 -2.160730 0.000000 -0.000000 -0.000002 0.872753 5.500592 -21.877299 0.087926 1.012249 -9.928504 0.000000 0.000000 0.000001 1.471998 7.478241 -18.525759 0.300206 1.853020 -18.403441 0.000000 -0.000000 0.000000 -1.697504 15.557755 -19.134799 0.370820 2.052985 -20.475324 0.000001 -0.000001 -0.000000 -1.569643 -8.377660 -14.965269 0.000000 0.000000 0.000000 -29.516126 36.059936 26.253335 -0.000005 121.356370 0.000008 1.490557 12.183655 -43.921193 27.217078 26.328168 -7.221389 12.620629 -31.646408 39.727713 -15.731358 -33.858142 -24.893301 -0.000002 0.000001 -0.000002 3.344716 0.259453 17.143657 0.003479 -0.180152 2.211960 -0.000000 -0.000000 -0.000000 0.921709 -5.175099 25.205481 0.070801 -0.809849 9.992541 -0.000000 0.000002 0.000001 1.333958 -6.500124 20.818241 0.269518 -1.562844 19.567775 -0.000001 -0.000002 -0.000000 -2.139008 -15.198740 21.741675 0.300651 -1.647800 20.679357 0.000001 0.000000 0.000000 -34.331854 4.866423 15.810807 35.873161 8.848787 0.430009 -10.471245 -3.944625 -13.552715 -0.109841 0.000003 0.000000 -0.000000 0.000000 0.000000 -38.819773 -2.364921 -5.069877 37.618425 0.757649 -4.340248 -7.897734 -11.356194 8.912060 1.031096 -0.000010 -0.000000 -0.000000 -0.000001 0.000000 
-0.883186 96.054031 44.651619 10.556021 -4.997972 0.111826 5.189751 0.121029 -1.232164 1.911444 -0.569145 -0.186931 0.000000 0.000000 0.000000 -0.161185 -0.970425 0.868122 12.453096 -0.296591 2.274848 -29.759937 0.843139 -5.284011 -0.000000 0.000000 -0.000000 5.875352 -8.055282 20.055969 0.000000 0.000000 0.000000 -34.142565 -16.790055 -15.375131 -0.000021 -124.460090 -0.000021 -2.606255 -13.888122 39.182514 28.761476 -24.766923 7.719523 13.199934 30.105152 -41.441230 -17.402007 27.682986 25.682720 0.000001 0.000000 -0.000001 3.069568 -0.215147 -16.039878 0.003674 0.207616 -2.026399 0.000000 0.000000 0.000000 0.875035 5.503077 -21.943379 0.082609 0.981391 -9.622854 0.000000 0.000000 -0.000001 1.474906 7.486894 -18.524907 0.296683 1.842397 -18.294117 -0.000000 0.000000 0.000000 -1.764790 15.538904 -19.028354 0.367411 2.043839 -20.379898 0.000000 -0.000001 -0.000000 -1.577469 -8.399915 -14.977695 0.000000 0.000000 0.000000 -29.040796 36.106337 26.125866 -0.000004 121.325552 0.000008 0.621402 13.275602 -43.722445 27.195556 26.336455 -7.211329 12.611103 -31.646599 39.702394 -15.700568 -33.857972 -24.842291 0.000001 0.000001 -0.000003 3.355501 0.248062 17.203464 0.003509 -0.180913 2.221363 -0.000000 0.000001 -0.000000 0.928100 -5.183128 25.338456 0.071175 -0.811966 10.018983 -0.000000 -0.000001 -0.000000 1.330935 -6.479227 20.917185 0.270808 -1.566477 19.615175 0.000000 0.000001 0.000000 -2.120921 -15.198084 21.855215 0.301312 -1.649537 20.702201 -0.000000 0.000002 0.000001 -32.605168 5.406684 15.548639 32.918817 8.825961 0.422129 -9.627107 -4.076796 -13.367348 -0.109846 -0.000001 0.000001 0.000000 -0.000001 0.000000 -37.029577 -2.532055 -4.993571 34.894286 0.574501 -4.315533 -7.233107 -11.308953 8.925198 1.021068 0.000001 0.000002 -0.000000 -0.000000 0.000000 
-0.941955 96.788116 45.018421 10.795004 -4.806985 0.113250 5.077702 0.116097 -1.214218 1.666089 -0.571975 -0.208916 0.000000 0.000000 0.000000 -0.559320 -0.968294 0.843850 12.301275 -0.295254 2.357713 -29.149553 0.800226 -5.276033 -0.000000 0.000000 -0.000000 5.878848 -8.060532 20.101156 0.000000 0.000000 0.000000 -33.982213 -16.856635 -15.686663 0.000005 -124.387594 0.000001 -3.851812 -13.938190 39.134067 28.792625 -24.793633 7.783944 13.167953 30.092997 -41.468913 -17.377210 27.661914 25.629431 -0.000004 -0.000003 0.000001 3.081260 -0.191206 -16.120735 0.003525 0.203396 -1.985200 -0.000000 -0.000000 -0.000002 0.878238 5.506978 -22.027379 0.078931 0.959451 -9.405680 -0.000000 -0.000000 -0.000001 1.484612 7.508879 -18.559308 0.295693 1.839405 -18.263373 -0.000000 0.000001 0.000000 -1.807168 15.526705 -18.984868 0.366253 2.040715 -20.347371 0.000000 -0.000000 -0.000000 -1.587335 -8.450119 -14.986748 0.000000 0.000000 0.000000 -28.633698 36.187722 26.024546 -0.000005 121.147202 0.000008 -0.032547 14.261428 -43.465323 27.172987 26.344562 -7.200395 12.601711 -31.646920 39.677112 -15.669729 -33.859529 -24.791285 -0.000002 -0.000001 0.000002 3.366420 0.236502 17.265613 0.003552 -0.182018 2.234964 0.000000 0.000000 0.000001 0.934618 -5.191290 25.473983 0.071600 -0.814364 10.048946 -0.000000 -0.000001 -0.000000 1.327864 -6.458155 21.018504 0.272228 -1.570451 19.667009 -0.000000 0.000001 -0.000000 -2.102268 -15.197536 21.971400 0.302127 -1.651689 20.730430 0.000001 0.000000 0.000000 -30.951931 5.907964 15.291207 30.073354 8.802646 0.413398 -8.775284 -4.226409 -13.190629 -0.109845 0.000000 0.000001 0.000000 -0.000001 0.000000 -35.326722 -2.687047 -4.918022 32.292817 0.380641 -4.291112 -6.566329 -11.261385 8.934264 1.011055 -0.000007 -0.000002 0.000000 -0.000002 0.000000 
-0.996464 97.433342 45.330109 10.969543 -4.617079 0.115060 4.985533 0.111550 -1.193493 1.454992 -0.575847 -0.227306 0.000000 0.000000 0.000000 -0.918371 -0.967315 0.822786 12.149641 -0.303946 2.434267 -28.491234 0.716113 -5.283606 -0.000000 -0.000000 -0.000001 5.881366 -7.946038 20.121321 0.000000 0.000000 0.000000 -33.764391 -17.243357 -15.928110 0.000005 -124.230896 0.000001 -5.100336 -13.844760 39.465659 28.513004 -24.637869 7.851871 13.061365 30.072715 -41.232687 -17.303765 27.711727 25.495626 0.000000 -0.000000 -0.000004 3.077368 -0.164142 -16.281195 0.004282 0.224187 -2.188228 -0.000000 -0.000000 -0.000002 0.883467 5.514448 -22.140960 0.079766 0.964480 -9.455459 -0.000000 0.000001 0.000000 1.509849 7.560502 -18.676263 0.301354 1.856467 -18.438891 -0.000000 0.000000 0.000000 -1.778060 15.533305 -19.108692 0.371052 2.053602 -20.481726 0.000000 -0.000000 0.000000 -1.601079 -8.534186 -15.002514 0.000000 0.000000 0.000000 -28.345507 36.296868 26.002354 -0.000007 120.828860 0.000008 -0.558087 15.208084 -43.049067 27.151416 26.352579 -7.190640 12.592138 -31.647084 39.651775 -15.638958 -33.859563 -24.740082 0.000001 0.000000 -0.000001 3.377263 0.225133 17.325635 0.003582 -0.182834 2.244903 0.000000 -0.000002 0.000000 0.941038 -5.199276 25.607119 0.071981 -0.816526 10.075868 -0.000000 0.000000 0.000000 1.324660 -6.437259 21.117611 0.273544 -1.574125 19.714959 -0.000001 -0.000000 -0.000000 -2.084215 -15.196761 22.085106 0.302799 -1.653475 20.753801 -0.000001 0.000002 0.000001 -29.384304 6.369189 15.041270 27.409742 8.778118 0.403628 -7.946338 -4.383575 -13.026478 -0.109844 0.000001 0.000001 -0.000000 0.000000 0.000000 -33.735609 -2.829764 -4.854752 29.891855 0.196245 -4.267045 -5.925491 -11.215154 8.935887 1.001034 0.000002 0.000002 0.000000 -0.000001 0.000000 
-1.045195 97.986183 45.582794 11.064983 -4.438680 0.120348 4.914493 0.107152 -1.171135 1.280401 -0.581400 -0.243914 0.000000 0.000000 0.000000 -1.235877 -0.968073 0.803033 12.017595 -0.320258 2.501738 -27.789525 0.599162 -5.297345 -0.000000 0.000000 -0.000000 5.878256 -7.672477 20.103036 0.000000 0.000000 0.000000 -33.468743 -17.978113 -16.110611 0.000004 -124.031864 0.000000 -6.302864 -13.635465 40.173851 27.680393 -24.160233 7.865539 12.836466 30.070236 -40.547783 -17.152704 27.875945 25.235056 -0.000002 0.000000 -0.000000 3.046102 -0.133750 -16.569849 0.007062 0.287896 -2.810543 -0.000000 -0.000000 -0.000003 0.892086 5.528102 -22.297359 0.088840 1.017457 -9.980092 -0.000000 -0.000000 -0.000001 1.561160 7.660394 -18.930441 0.318765 1.907860 -18.969030 -0.000000 0.000001 0.000000 -1.623491 15.571516 -19.520600 0.386335 2.094039 -20.904074 -0.000001 0.000001 0.000000 -1.619843 -8.648571 -15.036398 0.000000 0.000000 0.000000 -28.202447 36.406872 26.123045 0.000020 120.435469 -0.000018 -1.114562 16.216537 -42.342819 27.133422 26.360692 -7.184644 12.581903 -31.646732 39.626299 -15.608458 -33.853863 -24.688438 -0.000002 -0.000000 0.000002 3.387713 0.214443 17.377772 0.003568 -0.182496 2.240830 -0.000000 -0.000000 -0.000000 0.947017 -5.206669 25.731414 0.072201 -0.817750 10.091173 0.000001 -0.000001 0.000000 1.321225 -6.417028 21.208629 0.274452 -1.576667 19.748155 -0.000001 -0.000001 0.000000 -2.068323 -15.195390 22.189659 0.302947 -1.653852 20.758934 -0.000001 0.000001 0.000000 -27.916146 6.788873 14.803238 24.982320 8.752626 0.392712 -7.164355 -4.540150 -12.876716 -0.109845 0.000007 -0.000000 -0.000000 -0.000000 -0.000000 -32.274215 -2.960725 -4.808974 27.742806 0.034995 -4.243170 -5.330566 -11.171689 8.929742 0.991010 -0.000002 0.000002 0.000000 -0.000000 0.000000 
